HIERARCHY
ROOT Hips
{
	OFFSET -0.001795 -0.223333 0.028219
	CHANNELS 6 Xposition Yposition Zposition Zrotation Yrotation Xrotation 
	JOINT LeftUpLeg
	{
		OFFSET 0.069520 -0.091406 -0.006815
		CHANNELS 3 Zrotation Yrotation Xrotation
		JOINT LeftLeg
		{
			OFFSET 0.034277 -0.375199 -0.004496
			CHANNELS 3 Zrotation Yrotation Xrotation
			JOINT LeftFoot
			{
				OFFSET -0.013596 -0.397961 -0.043693
				CHANNELS 3 Zrotation Yrotation Xrotation
				JOINT LeftToe
				{
					OFFSET 0.026358 -0.055791 0.119288
					CHANNELS 3 Zrotation Yrotation Xrotation
					End Site
					{
						OFFSET 0.000000 0.000000 0.000000
					}
				}
			}
		}
	}
	JOINT RightUpLeg
	{
		OFFSET -0.067670 -0.090522 -0.004320
		CHANNELS 3 Zrotation Yrotation Xrotation
		JOINT RightLeg
		{
			OFFSET -0.038290 -0.382569 -0.008850
			CHANNELS 3 Zrotation Yrotation Xrotation
			JOINT RightFoot
			{
				OFFSET 0.015774 -0.398415 -0.042312
				CHANNELS 3 Zrotation Yrotation Xrotation
				JOINT RightToe
				{
					OFFSET -0.025372 -0.048144 0.123348
					CHANNELS 3 Zrotation Yrotation Xrotation
					End Site
					{
						OFFSET 0.000000 0.000000 0.000000
					}
				}
			}
		}
	}
	JOINT Spine
	{
		OFFSET -0.002533 0.108963 -0.026696
		CHANNELS 3 Zrotation Yrotation Xrotation
		JOINT Spine1
		{
			OFFSET 0.005487 0.135180 0.001092
			CHANNELS 3 Zrotation Yrotation Xrotation
			JOINT Spine2
			{
				OFFSET 0.001457 0.052922 0.025425
				CHANNELS 3 Zrotation Yrotation Xrotation
				JOINT Neck
				{
					OFFSET -0.002778 0.213870 -0.042857
					CHANNELS 3 Zrotation Yrotation Xrotation
					JOINT Head
					{
						OFFSET 0.005152 0.064970 0.051349
						CHANNELS 3 Zrotation Yrotation Xrotation
						End Site
						{
							OFFSET 0.000000 0.000000 0.000000
						}
					}
				}
				JOINT LeftShoulder
				{
					OFFSET 0.078845 0.121749 -0.034090
					CHANNELS 3 Zrotation Yrotation Xrotation
					JOINT LeftArm
					{
						OFFSET 0.090977 0.030469 -0.008868
						CHANNELS 3 Zrotation Yrotation Xrotation
						JOINT LeftForeArm
						{
							OFFSET 0.259612 -0.012772 -0.027456
							CHANNELS 3 Zrotation Yrotation Xrotation
							JOINT LeftHand
							{
								OFFSET 0.249234 0.008986 -0.001171
								CHANNELS 3 Zrotation Yrotation Xrotation
								End Site
								{
									OFFSET 0.000000 0.000000 0.000000
								}
							}
						}
					}
				}
				JOINT RightShoulder
				{
					OFFSET -0.081759 0.118833 -0.038615
					CHANNELS 3 Zrotation Yrotation Xrotation
					JOINT RightArm
					{
						OFFSET -0.096012 0.032551 -0.009143
						CHANNELS 3 Zrotation Yrotation Xrotation
						JOINT RightForeArm
						{
							OFFSET -0.253742 -0.013329 -0.021401
							CHANNELS 3 Zrotation Yrotation Xrotation
							JOINT RightHand
							{
								OFFSET -0.255298 0.007772 -0.005559
								CHANNELS 3 Zrotation Yrotation Xrotation
								End Site
								{
									OFFSET 0.000000 0.000000 0.000000
								}
							}
						}
					}
				}
			}
		}
	}
}
MOTION
Frames: 7
Frame Time: 0.050000
0.476426 0.976422 2.674486 1.289253 2.876876 1.699962 1.807765 -1.045231 -12.925646 -4.556514 0.483236 5.683578 0.905401 5.339878 8.547945 0.000000 0.000000 0.000000 1.659715 -1.665499 13.384068 -0.977489 0.620395 11.564017 7.628904 3.353339 25.456888 0.000000 0.000000 0.000000 -5.801993 0.092624 2.753524 7.795140 -1.206125 -24.307260 1.693690 4.112870 32.694778 -4.646546 5.184487 -36.578767 0.000000 0.000000 0.000000 -34.053236 14.276704 -15.698997 -25.735496 16.427453 -6.536337 -120.567617 -45.436819 74.707532 0.000000 0.000000 0.000000 21.267800 -1.571408 -0.091869 43.185132 6.873725 -5.059707 158.938359 58.202338 158.312277 0.000000 0.000000 0.000000 
0.489440 0.991683 2.770434 1.474887 5.508875 0.757839 0.235950 -1.023740 -11.016066 -5.717800 0.418263 -6.904290 -2.317334 6.181437 25.040193 0.000000 0.000000 0.000000 0.936080 -1.707475 13.976006 -0.917230 0.774234 18.550661 10.349275 3.435268 35.401405 0.000000 0.000000 0.000000 -6.907817 0.077974 2.139828 7.260142 -1.184285 -22.715269 1.520028 2.895089 31.451893 -5.164377 5.482429 -35.657680 0.000000 0.000000 0.000000 -31.618432 14.652897 -15.226921 -27.978264 17.028170 -7.272694 -119.506785 -45.041729 72.787056 0.000000 0.000000 0.000000 20.097692 -0.640154 0.511308 44.728525 5.632030 -5.412000 156.364764 57.721426 153.963829 0.000000 0.000000 0.000000 
0.502315 0.983023 2.860387 1.661548 7.700552 -1.729198 -1.935449 -0.842215 -7.971004 -4.511217 0.384415 -4.320888 -2.621304 6.361806 25.526033 0.000000 0.000000 0.000000 0.337765 -1.363880 11.538172 -1.559497 1.058521 30.890671 11.601219 3.889265 38.689471 0.000000 0.000000 0.000000 -8.784802 0.119715 4.978757 7.520476 -1.131133 -24.049800 1.793267 -0.386404 33.141681 -5.556659 5.377592 -36.875317 0.000000 0.000000 0.000000 -35.190997 13.230732 -14.526543 -26.486272 15.400920 -6.773165 -119.386813 -48.857696 78.749046 0.000000 0.000000 0.000000 20.446883 -0.568422 0.119684 44.243209 3.944784 -6.031590 153.597950 56.851524 147.078159 0.000000 0.000000 0.000000 
0.514491 0.957603 2.944973 1.795184 9.680294 -4.378401 -2.606099 -0.498702 -4.736436 -4.279259 0.363796 3.602941 -1.376391 5.053115 15.622201 0.000000 0.000000 0.000000 -1.005169 -0.451767 4.324879 -1.480117 0.499535 46.840096 9.670586 3.324051 34.156678 0.000000 0.000000 0.000000 -9.433638 0.118594 7.351676 9.072414 -1.679555 -22.532310 -0.793266 -2.701319 32.691817 -5.386077 5.072003 -38.328040 0.000000 0.000000 0.000000 -38.640084 9.367186 -11.891354 -26.077612 11.267146 -6.092633 -116.157108 -55.988541 84.867360 0.000000 0.000000 0.000000 23.423731 0.515023 0.302452 42.137116 1.200106 -6.594196 149.603278 62.183417 142.538108 0.000000 0.000000 0.000000 
0.525430 0.936142 3.024145 1.379867 11.673844 -6.650780 -2.447949 -0.023134 -0.441332 -3.443912 0.108624 9.492122 -0.201833 2.460567 5.011683 0.000000 0.000000 0.000000 -1.434294 0.210479 -2.752365 -2.567695 0.422700 51.198109 2.695734 -0.793037 17.594729 0.000000 0.000000 0.000000 -8.610913 0.059609 10.333471 10.521530 -2.036694 -23.022646 -4.239087 -5.705533 33.108103 -4.797636 4.501270 -38.883630 0.000000 0.000000 0.000000 -42.637948 5.006037 -8.161908 -24.965407 3.746640 -4.848955 -110.199564 -66.524380 91.007780 0.000000 0.000000 0.000000 26.863263 1.121494 -0.152415 40.332941 -2.384610 -7.236027 141.128418 67.658349 132.543150 0.000000 0.000000 0.000000 
0.535285 0.939407 3.101701 1.394661 13.492938 -7.760654 -2.387144 0.466187 4.754005 -2.342427 -0.202921 11.639777 -0.897619 0.713137 4.050162 0.000000 0.000000 0.000000 -2.824525 0.557080 -9.446594 -1.038492 -0.690560 46.124297 -1.483635 -4.226144 1.532947 0.000000 0.000000 0.000000 -7.577262 -0.049818 12.078713 10.292919 -1.938026 -23.181939 -5.634927 -9.418123 32.180183 -6.163507 4.722465 -37.324163 0.000000 0.000000 0.000000 -41.500669 4.225025 -5.721493 -27.989943 -2.266969 -4.691861 -101.640670 -70.268490 87.041763 0.000000 0.000000 0.000000 28.396652 0.186301 -1.983484 38.342084 -7.785852 -7.972813 122.202976 69.146073 107.665429 0.000000 0.000000 0.000000 
0.544577 0.954190 3.179495 0.762268 15.042406 -7.990064 -1.745416 0.754625 9.525875 -0.461852 -0.561717 11.482797 -3.008871 0.371498 9.829179 0.000000 0.000000 0.000000 -2.367578 0.728815 -12.168802 -0.053323 -0.288244 27.683273 -1.364246 -4.863778 6.710534 0.000000 0.000000 0.000000 -5.951674 -0.177963 11.385575 9.565740 -1.621314 -24.061096 -6.577198 -12.504899 33.440695 -6.220004 4.407239 -37.323323 0.000000 0.000000 0.000000 -40.029258 4.353610 -4.388430 -30.088981 -6.590787 -4.531972 -100.888990 -69.769693 86.783544 0.000000 0.000000 0.000000 27.348052 -1.364611 -3.618434 37.167794 -11.872979 -8.663840 111.103950 68.816660 93.349079 0.000000 0.000000 0.000000 
